<svg width="200" height="200" viewBox="0 0 200 200" xmlns="http://www.w3.org/2000/svg">
  <defs>
    <linearGradient id="bgGradient" x1="0%" y1="0%" x2="100%" y2="100%">
      <stop offset="0%" style="stop-color:#1e40af;stop-opacity:1" />
      <stop offset="100%" style="stop-color:#3730a3;stop-opacity:1" />
    </linearGradient>
    <linearGradient id="centerGradient" x1="0%" y1="0%" x2="100%" y2="100%">
      <stop offset="0%" style="stop-color:#3b82f6;stop-opacity:1" />
      <stop offset="100%" style="stop-color:#2563eb;stop-opacity:1" />
    </linearGradient>
    <linearGradient id="accentGradient" x1="0%" y1="0%" x2="100%" y2="100%">
      <stop offset="0%" style="stop-color:#10b981;stop-opacity:1" />
      <stop offset="100%" style="stop-color:#059669;stop-opacity:1" />
    </linearGradient>
  </defs>
  
  <!-- Outer hexagon -->
  <path d="M100 20 L160 55 L160 145 L100 180 L40 145 L40 55 Z" 
        fill="url(#bgGradient)" stroke="#1e40af" stroke-width="3"/>
  
  <!-- Inner circle -->
  <circle cx="100" cy="100" r="50" fill="url(#centerGradient)" stroke="#ffffff" stroke-width="2"/>
  
  <!-- Security lock icon -->
  <rect x="85" y="90" width="30" height="25" rx="3" fill="#ffffff" stroke="#2563eb" stroke-width="1"/>
  <path d="M90 90 L90 85 Q90 75 100 75 Q110 75 110 85 L110 90" 
        stroke="#ffffff" stroke-width="3" fill="none" stroke-linecap="round"/>
  
  <!-- Accent dot -->
  <circle cx="100" cy="102" r="4" fill="url(#accentGradient)"/>
  
  <!-- Corner accents -->
  <circle cx="75" cy="75" r="3" fill="#ffffff" fill-opacity="0.7"/>
  <circle cx="125" cy="75" r="3" fill="#ffffff" fill-opacity="0.7"/>
  <circle cx="75" cy="125" r="3" fill="#ffffff" fill-opacity="0.7"/>
  <circle cx="125" cy="125" r="3" fill="#ffffff" fill-opacity="0.7"/>
</svg>